<svg xmlns="http://www.w3.org/2000/svg" width="89" height="91" fill="none" viewBox="0 0 89 91">
  <path fill="#FD868C" d="M44.5.98a6.911 6.911 0 00-3.958 12.587v5.541c-3.563.515-6.888 1.663-9.896 3.404l-4.394-6.293c.752-2.059.554-4.434-.792-6.334-1.385-1.94-3.523-2.968-5.7-2.968-1.385 0-2.77.396-3.958 1.266-3.127 2.177-3.919 6.492-1.702 9.62a6.865 6.865 0 005.66 2.968l4.671 6.65c-1.702 1.702-3.048 3.602-4.196 5.7a6.602 6.602 0 00-2.454-.475 7.215 7.215 0 00-4.948 1.979 7.149 7.149 0 000 9.896c1.148 1.069 2.534 1.662 3.959 1.979 0 2.138.277 4.196.712 6.175L12.32 54.06a6.945 6.945 0 00-4.434-1.623c-.593 0-1.227 0-1.82.238a6.935 6.935 0 00-4.87 8.51c.832 3.127 3.722 5.107 6.69 5.107.594 0 1.188 0 1.821-.238 2.257-.633 3.959-2.296 4.671-4.354l5.977-1.623c1.781 3.127 4.156 5.898 6.927 8.194l-4.354 7.916c-2.177.317-4.156 1.544-5.304 3.642A6.924 6.924 0 1029.815 86.4a6.85 6.85 0 00.079-6.373l4.235-7.798A28.113 28.113 0 0044.5 74.21h.712c-.514 1.028-.712 2.216-.712 3.483.317 3.641 3.325 6.412 6.927 6.412h.515c3.84-.317 6.69-3.641 6.412-7.442a6.982 6.982 0 00-2.573-4.868c1.86-.831 3.642-1.9 5.304-3.127l9.263 9.262a7.05 7.05 0 001.86 6.175 7.215 7.215 0 004.948 1.98 7.215 7.215 0 004.948-1.98 7.149 7.149 0 000-9.896 7.215 7.215 0 00-4.948-1.979c-.396 0-.791 0-1.227.119l-9.262-9.263a27.568 27.568 0 004.393-8.668h4.394a6.91 6.91 0 0012.588-3.959A6.912 6.912 0 0075.454 46.5h-3.246c0-6.215-1.979-11.875-5.541-16.585l5.304-5.305c.435.12.831.12 1.227.12a7.214 7.214 0 004.948-1.98c2.652-2.731 2.652-7.125 0-9.896a7.214 7.214 0 00-4.948-1.979 7.214 7.214 0 00-4.948 1.98 7.05 7.05 0 00-1.86 6.174l-5.305 5.304a27.372 27.372 0 00-12.627-5.225v-5.541A6.912 6.912 0 0044.5.979zm0 65.312c-10.925 0-19.792-8.867-19.792-19.792S33.575 26.708 44.5 26.708 64.292 35.575 64.292 46.5 55.425 66.292 44.5 66.292zm-5.938-31.667a5.93 5.93 0 00-5.937 5.938 5.93 5.93 0 005.938 5.937 5.93 5.93 0 005.937-5.938 5.93 5.93 0 00-5.938-5.937zm13.855 15.833a3.97 3.97 0 00-3.959 3.959 3.97 3.97 0 003.959 3.958 3.97 3.97 0 003.958-3.958 3.97 3.97 0 00-3.958-3.959z"/>
</svg>
